# xmcd CD database file
#
# Track frame offsets:
#	150
#	24710
#	38927
#	52233
#	65533
#	80087
#	92992
#	109106
#	121758
#	136346
#	150326
#	161520
#	174985
#	190926
#	205018
#	219478
#	231619
#	246285
#	258040
#	272475
#	282486
#	297011
#	312365
#	326024
#	338974
#
# Disc length: 4693 seconds
#
# Revision: 0
# Processed by: cddbd v1.5.2PL0 Copyright (c) Steve Scherf et al.
# Submitted via: CDex 1.51
#
DISCID=75125319
DTITLE=Villa Mix Fortaleza - Villa Mix Fortaleza
DYEAR=1900
DGENRE=Country
TTITLE0=A Hora é agora
TTITLE1=GAtinha Assanhada
TTITLE2=Só vou beber mais hoje
TTITLE3=Descontrolada
TTITLE4=Flor
TTITLE5=As mina pira
TTITLE6=Eu vou contar procês
TTITLE7=Beijo Meu
TTITLE8=Enquanto houver razões
TTITLE9=Doidaça
TTITLE10=Bem Gostosinho
TTITLE11=Sinal Disfarçado
TTITLE12=O que é que tem
TTITLE13=Mente pra mim
TTITLE14=Canção Perfeita
TTITLE15=Depende
TTITLE16=A gente nem ficou
TTITLE17=Quero te pegar
TTITLE18=Se voce não voltar
TTITLE19=Vem ni mim Dodge Ram
TTITLE20=Eu quero só você
TTITLE21=Balada
TTITLE22=Romance
TTITLE23=Carro pancadão
TTITLE24=Se quer beber
EXTD=
EXTT0=
EXTT1=
EXTT2=
EXTT3=
EXTT4=
EXTT5=
EXTT6=
EXTT7=
EXTT8=
EXTT9=
EXTT10=
EXTT11=
EXTT12=
EXTT13=
EXTT14=
EXTT15=
EXTT16=
EXTT17=
EXTT18=
EXTT19=
EXTT20=
EXTT21=
EXTT22=
EXTT23=
EXTT24=
PLAYORDER=
